<?xml version="1.0" encoding="UTF-8"?><svg id="Capa_1" xmlns="http://www.w3.org/2000/svg" viewBox="0 0 223.98 223.91"><defs><style>.cls-1{fill:#fff;}</style></defs><path class="cls-1" d="m223.56,112l.42,1.06-.29,1.06.15,1.06-.03,1.06v1.06s-.17,1.05-.17,1.05l.09,1.07-.31,1.04-.24,1.04v1.06s.09,1.07.09,1.07l-.24,1.04-.14,1.05-.11,1.05-.25,1.03-.18,1.04v1.07s.02,1.08.02,1.08l-.35,1.01v1.08s-.35,1.01-.35,1.01l-.41,1,.1,1.11-.59.95.12,1.12-.64.93.04,1.1-.4.99-.08,1.08-.68.91-.14,1.06-.19,1.05-.19,1.05-.75.87v1.11s-.49.96-.49.96l-.47.96-.2,1.05-.47.95-.44.96-.4.98-.37.99-.52.93-.41.98-.31,1.02-.45.96-.24,1.06-.53.92-.56.91-.64.86-.16,1.11-.81.77-.47.95-.42.98-.44.97-.81.75-.16,1.14-.67.83-.42.99-.71.81-.52.93-.52.93-.63.85-.75.77-.72.79-.59.88-.46.98-.55.91-.63.85-.72.78-.79.72-.69.8-.5.95-.73.77-.71.79-.54.93-.69.8-.83.68-.6.88-.81.69-.74.76-.69.81-1.02.47-.64.85-.75.75-.85.63-.56.95-.81.68-.96.51-.61.91-.86.62-.7.81-.92.55-.78.72-.86.61-.85.62-.77.73-.94.51-.87.6-.77.74-.83.65-.86.62-.9.55-.9.55-.81.69-.95.47-.82.68-.84.66-1.12.2-.81.7-.97.43-.91.53-.86.63-.92.53-.86.64-1.06.26-.89.59-1,.36-.97.41-.87.64-.95.47-1.03.28-.91.57-1.11.1-.9.59-.98.4-1.05.22-.88.66-1.06.2-1.04.24-.92.58-.98.42-.99.38-1.1.02-.96.49-1.09.03-.94.55-.97.46-1.15-.2-.98.44-.96.51-1.05.14-1.01.32-1.1-.08-1.04.21-1.06.11-1.01.36-1.03.28-1.02.32-1.1-.19-1.06.07-1,.48-1.03.26-1.09-.22-1.05.15-1.03.4-1.07-.11-1.05.18-1.07-.17-1.04.38-1.07-.09-1.07-.25-1.05.16-1.05.23-1.06.03-1.06-.27-1.06-.05-1.06.22-1.06.1-1.05-.18-1.06.1-1.06-.09-1.05-.14-1.05-.11-1.05-.19-1.05-.15-1.07.06h-1.07s-1.01-.44-1.01-.44l-1.06-.04-1.09.14-1.03-.3-1.05-.12-1.04-.23-1.08.04-.97-.6-1.05-.15-1.09.06-.97-.52-1.08-.04-.99-.42-1.06-.13-1.04-.22-1.04-.2-1.05-.17-1.01-.31-.98-.43-.92-.6-1.02-.28-1.07-.12-1.04-.23-1.02-.3-.84-.78-1.07-.15-.92-.54-1.02-.29-.92-.54-.98-.4-1.04-.25-1.08-.18-.82-.75-1.09-.16-.83-.72-.9-.57-1.01-.34-1.07-.23-.92-.52-.77-.8-1.02-.34-.91-.55-.87-.61-1.09-.23-.93-.52-.68-.92-.97-.45-.87-.61-.98-.44-.92-.52-.87-.61-.76-.76-.99-.44-.88-.59-.63-.93-.94-.5-.93-.53-.82-.68-.95-.5-.64-.89-.77-.73-1.01-.45-.81-.68-.57-.95-.79-.7-.78-.71-.75-.75-.97-.51-.72-.78-.64-.86-1.03-.46-.44-1.06-.98-.53-.65-.84-.62-.86-.93-.58-.59-.89-.79-.71-.54-.93-.65-.83-.8-.71-.54-.92-.77-.74-.62-.86-.76-.75-.43-1-.54-.91-.81-.72-.45-.98-.84-.71-.37-1.03-.87-.69-.64-.85-.53-.92-.61-.87-.34-1.03-.63-.86-.62-.86-.61-.87-.39-1-.57-.9-.29-1.05-.56-.9-.68-.84-.33-1.02-.3-1.03-.43-.97-.85-.77-.13-1.1-.46-.95-.58-.9-.34-1-.34-1-.67-.87-.03-1.13-.62-.9-.36-1-.42-.97-.07-1.1-.34-1-.63-.91-.35-1-.29-1.02-.11-1.07-.42-.98v-1.09s-.43-.98-.43-.98l-.46-.98.02-1.09-.46-.98-.29-1.02-.2-1.04.15-1.11-.55-.97-.13-1.05.09-1.09-.13-1.05-.31-1.02-.17-1.04-.07-1.06-.42-1.01.21-1.09-.42-1.02.04-1.07-.31-1.04.22-1.08-.13-1.05-.06-1.06.15-1.07-.51-1.04.26-1.07.06-1.06v-1.06s-.22-1.06-.22-1.06v-1.06s0-1.06,0-1.06l.1-1.06-.07-1.06-.04-1.06.16-1.05-.04-1.06.34-1.04-.17-1.08.29-1.04-.06-1.07.39-1.02-.23-1.09.3-1.03.22-1.04.14-1.05.37-1.01.15-1.05.15-1.05.1-1.06-.02-1.08.27-1.03.46-.98.31-1.01.15-1.05.13-1.06.2-1.04.2-1.04.27-1.02.69-.9-.09-1.13.69-.9.03-1.1.22-1.04.65-.9.1-1.09.28-1.03.5-.94.44-.97.3-1.02.37-.99.72-.84.27-1.03.41-.98.26-1.04.44-.96.56-.91.71-.83.06-1.15.71-.83.41-.98.42-.98.64-.86.45-.96.4-.99.88-.71.29-1.06.71-.81.35-1.03.83-.73.43-.98.74-.78.36-1.04.59-.88.79-.74.64-.84.58-.88.56-.9.8-.72.41-1.02.82-.7.65-.84.56-.91.67-.82.68-.81.57-.91.94-.58.78-.72.77-.73.55-.94.6-.89.93-.57.69-.81.68-.82.73-.77.89-.61.79-.7.79-.71.7-.8.86-.62.66-.86.94-.53.71-.8.76-.74,1.05-.38.79-.71.68-.86,1.1-.3.74-.77.81-.69.97-.47.77-.75.75-.78.94-.5.99-.43.85-.64.86-.61,1.02-.37.88-.58.73-.85,1.12-.17.79-.75.92-.53.99-.39.88-.59,1.04-.29.88-.6.97-.43.84-.69,1.13-.08.94-.47.8-.81,1.05-.24.94-.48,1.01-.33.94-.5,1-.35.98-.41.97-.43h1.12s.96-.45.96-.45l1-.34.95-.49.99-.37,1.09-.04.94-.54h1.1s.96-.49.96-.49l1-.36,1-.35,1.05-.16,1.05-.15,1.07-.05,1-.38,1.04-.18,1-.38,1.1.11.97-.59,1.06-.05,1.06-.07,1.06-.09,1.04-.19,1.06-.02,1.04-.21,1.03-.34,1.06-.03,1.07.11,1.04-.31,1.08.23,1.04-.42,1.06.04,1.06-.06,1.06.14,1.05-.27,1.06.15,1.06.26,1.06-.18,1.06.13,1.07-.3h1.06s1.05.2,1.05.2l1.06-.05,1.05.2,1.04.32,1.05.07,1.05.12,1.1-.36,1.05.18,1.03.35,1.06.08,1.04.2,1.09-.15,1.03.25,1,.45,1.04.21,1.1-.12.99.48,1.01.31,1.05.15,1.04.21,1.08.05.96.53,1.13-.15.99.42.95.52,1.14-.13.93.58,1.07.13,1.01.33.92.59,1.09.07.91.6.98.39.98.4h1.13s.91.59.91.59l.99.37.96.46.95.48.98.39,1.07.21.91.55.94.49.95.46.94.48,1,.37.96.45.8.74.87.62,1.03.32.92.51,1.02.36.81.71.86.63,1.04.34.83.67.76.78,1.09.27.67.89.93.51.81.68,1.09.3.58,1,1,.42.88.6.85.64.84.65.89.58.6.94.81.68.9.57.86.62.77.72.65.86.77.72.75.74.72.78.76.73.95.55.78.72.58.91.99.52.55.94.88.63.51.96.68.81.65.84.72.78.77.73.7.79.58.89.52.94.79.73.81.71.57.9.43.99.73.78.42.99.65.84.58.88.63.85.78.76.48.95.49.94.71.81.42.98.56.9.47.95.47.95.75.8.32,1.03.31,1.03.85.76.4.98.4.98.19,1.08.6.89.53.92.36,1,.42.97.51.93.47.95.12,1.09.26,1.03.35,1,.55.93.18,1.06.37.99.53.94.28,1.02.19,1.05.2,1.04.71.9.28,1.02.13,1.06.24,1.03.36,1,.1,1.06.27,1.02v1.08s.38,1,.38,1l.23,1.03.34,1.01-.2,1.11.42,1,.37,1.01-.25,1.11.09,1.05.39,1.02-.14,1.08.25,1.04.19,1.04v1.06s-.05,1.06-.05,1.06l.3,1.04.07,1.06-.04,1.06.08,1.06.03,1.06.11,1.06.17,1.06-.41,1.06Zm-180.81-3.41l1.14-.41,1.07.27,1.07-.17h1.07s1.07-.06,1.07-.06l1.07.13,1.07-.16,1.07.23,1.07.15,1.07-.08,1.07-.2,1.07.13,1.07.02,1.07-.02,1.07.11,1.06.03,1.07-.16,1.07-.2,1.07.17,1.07-.19,1.07.14,1.07.2,1.07-.33,1.07.36,1.07-.37,1.07.4,1.08-.31,1.08.13-.19-1.07.41-1.05-.14-1.05-.1-1.05-.1-1.05.47-1.03-.3-1.06.18-1.04.17-1.04-.12-1.06.17-1.04.13-1.05.08-1.05.05-1.05.2-1.04.08-1.05-.03-1.06.11-1.05-.12-1.07.2-1.04.22-1.04.31-1.03-.23-1.09.49-1,.11-1.05.04-1.06.07-.99-.95-.43-1.1.3-1.02-.29h-1.07s-1.02-.31-1.02-.31l-1.05-.09-1.05-.08-1.03-.22-1.01-.35-1.01-.31-1.04-.15-1.07.02-1.06-.08-1.04-.19-1.02-.29-1-.37-1.02-.24h-1.07s-1.01-.28-1.01-.28l-1.02-.25-1.07-.03-1.03-.22-.99-.39-1.06-.09-.99-.36-.95-.26-.2.98-.67.9-.14,1.06-.26,1.02-.39.99.05,1.1-.29,1.02-.5.97.04,1.09-.32,1.01-.06,1.06-.36,1-.14,1.05-.25,1.03-.22,1.04-.07,1.06-.32,1.02-.19,1.04v1.07s-.09,1.06-.09,1.06l-.11,1.05-.18,1.05-.16,1.05.02,1.07-.21,1.05.05,1.07.05,1.06-.47,1.03.13,1.07-.16,1.05-.02,1.06v1.28Zm13.32-84.81l1.24.38.79.77,1.02.37.94.5.97.45.89.6,1.03.34.86.68,1.03.62.73-.94.54-.94.8-.72.72-.79.69-.81.8-.71.75-.76.62-.88.6-.91.87-.64.62-.89.86-.65.91-.6.55-.97,1.03-.46.54-.99,1.06-.41.6-.94.89-.6.68-.85,1.13-.64-1.22.39-.98.45-.97.47-1.16-.05-.89.69-1.05.26-1.05.28-.93.57-1.03.32-1.01.37-.99.43-.97.48-1.02.35-.96.48-.91.59-.97.48-.85.7-.99.43-.99.43-1.03.36-.75.85-1.11.23-.91.58-.86.66-1.13.59Zm-37.89,42.04l-.08,1.13-.7.83-.28,1.03-.42.96-.37.98-.53.92-.25,1.03-.61.89-.53.92-.3,1.01-.17,1.06-.47.95-.36.99-.31,1-.43.97-.34,1-.15,1.05-.1,1.06-.45.96-.09,1.06-.4.98-.44.97.08,1.1-.58.94.14,1.1-.6.95.11,1.09-.31,1.01.03,1.07-.56.97v1.06s-.02,1.06-.02,1.06v1.06s-.56.99-.56.99l.23,1.08-.24,1.03-.21,1.04.1,1.06-.17,1.04-.12,1.05-.06,1.05.05,1.13,1.08.12,1.06-.02,1.06-.13h1.06s1.06-.22,1.06-.22l1.06.08,1.06.1,1.06.19,1.06-.37,1.06.36,1.06-.04,1.06-.11,1.06-.1,1.06.33,1.06-.44,1.06.14,1.06-.17,1.06.17,1.06-.07,1.06-.08,1.06.05,1.06.18,1.06.14,1.07-.03,1.07-.21,1.01-.1-.11-.87.13-1.05.22-1.04.09-1.05-.15-1.06.14-1.04.11-1.05-.11-1.06.09-1.05.27-1.03-.04-1.06.24-1.03.14-1.04.07-1.05.53-.99v-1.06s.15-1.04.15-1.04l.3-1.02-.13-1.09.23-1.03.45-.98-.07-1.08.31-1.01.06-1.06.38-.99.17-1.04.3-1.01.29-1.01.15-1.04.42-.98.31-1,.14-1.05.24-1.02.28-.97-.99-.31-1.02-.34-1.07-.17-.99-.42-1.06-.18-1.06-.19-.9-.7-1.08-.14-.99-.44-1.02-.31-1.06-.21-1.03-.31-1.07-.19-.93-.59-1.05-.23-.97-.47-.99-.41-1.08-.17-1.01-.34-.94-.53-1.05-.23-.87-.7m41.61-31.48l-1.18-.11-.86-.74-1.06-.36-.98-.51-1-.48-.9-.65-1.04-.41-.83-.75-.87-.7-.98-.5-.99-.39-.88.52-.86.64-.82.68-.9.59-.84.66-.71.81-.67.84-.91.57-.66.85-.88.62-.91.58-.54.98-1.01.48-.5,1.01-1.03.48-.52.98-.83.68-.57.92-1.02.51-.59.9-.61.88-.6.89-1.03.53-.42,1.04-.78.74-.76.76-.52.95-.73.78-.69.82-.64.86-.6.89-.71.81-.59.89-.49.96-.59.89-.38,1.02-.63.86-.63.86-.71.98,1.23.14.87.71,1.01.34,1.04.26,1.04.26.9.66,1.15-.07.96.47,1.06.18.96.49,1.03.26,1.04.24,1,.36.96.48.98.44,1.03.27,1.08.1,1.05.19,1.03.28,1,.37,1.03.44.43-1.02.17-1.07.45-.97.42-.98.21-1.06.4-.99.57-.92.28-1.04.54-.92.45-.96.38-1,.81-.79.32-1.02.46-.96.59-.89.21-1.09.53-.92.74-.81.26-1.07.6-.88.39-1,.67-.84.49-.94.6-.87.59-.88.47-.96.7-.81.61-.87.46-.96.56-.9.59-.88.65-.83.66-.83.52-.92m23.82,8.52l-1.25.05-.93-.52-1.04-.1-1-.27-1.01-.24-.95-.42-1.03-.15-.91-.54-.93-.47-1-.25-1.04-.15-.93-.47-.96-.38-.97-.34-.92-.47-.95-.41-1.02-.24-.48.97-.76.75-.46.97-.72.78-.76.76-.31,1.06-.88.68-.26,1.09-.9.68-.29,1.06-.66.83-.36,1.01-.88.71-.39,1-.41.98-.39.99-.89.72-.19,1.09-.6.88-.58.89-.31,1.03-.55.91-.5.93-.45.96-.4.98-.53.92-.4.98-.29,1.03-.41.97-.18,1.07-.46.95-.47.95-.53,1.07,1.22-.03.94.58,1.03.19,1.04.12,1.04.12.95.54,1.11-.22.99.34,1.06.04.99.36,1.04.12,1.04.11,1.02.23,1,.36,1.01.31,1.04.14,1.06-.04,1.05.06,1.03.15,1.02.25,1.01.32,1.03.18,1.07-.07,1.03.21,1.02.17-.03-1.06.17-1.04.35-1,.05-1.06.32-1.01.22-1.03.15-1.05.61-.95.08-1.06.22-1.03.36-1-.06-1.1.29-1.02.51-.97v-1.1s.35-1,.35-1l.12-1.07.43-.98.22-1.04.34-1.01.32-1.01.19-1.05.45-.97.34-1,.17-1.06.28-1.02.31-1.01.39-.98.55-1.11Zm15.1-34.39l-.69.89-1.04.3-.8.69-.88.56-.85.61-.94.47-.78.71-.99.4-.95.48-.8.68-.72.78-.91.53-.84.62-.81.66-.89.57-.83.64-.7.79-.67.83-.9.55-.66.83-.87.6-.91.56-.54.96-1.01.46-.49.99-1.02.46-.52.96-.82.66-.57.9-1.01.49-.59.88-.61.86-.59.87-1.07.72,1.27.22.96.5.97.47,1.07.19.98.44.99.39,1.01.33,1.03.28.99.41,1.03.28,1.07.16,1.03.29,1.1.05.94.35.42-.92.56-.94.05-1.14.73-.87.37-1.01.31-1.04.33-1.03.72-.86.02-1.17.56-.93.29-1.05.6-.91.39-1.01.39-1.01.51-.95.63-.89.6-.9.46-.98.3-1.05.4-1.01.49-.96.59-.91.66-.87.54-.93.33-1.04.59-.9.56-.92.37-1.03m-5.48,28.94l1.27-.13,1,.43,1.07-.02,1.05.13,1.06.08,1.04.24,1.07-.05,1.04.33,1.05.24h1.07s1.07-.14,1.07-.14l1.05.18,1.06.06,1.09-.02.11-1.07.03-1.06-.16-1.06-.2-1.06.17-1.06-.19-1.06.14-1.06.2-1.06-.33-1.06.36-1.06-.37-1.06.4-1.06-.31-1.06.13-1.06-.21-1.06.4-1.06-.16-1.06-.12-1.06-.13-1.07.44-1.06-.34-1.06.13-1.07.12-1.06-.18-1.07.1-1.06.05-1.07v-1.07s-.03-1.07-.03-1.07l.11-1.12-.91.85-.45.97-.56.9-.35,1.03-.61.87-.62.87-.69.83-.2,1.11-.83.76-.48.95-.41.99-.41.99-.78.79-.09,1.15-.6.89-.33,1.03-.62.88-.4.99-.38,1-.49.94-.61.89-.57.91-.41.99-.24,1.06-.32,1.02-.41.98-.49.94-.56.91-.43.98-.19,1.06-.69,1.05Zm-2.49,6.85l-.05,1.27-.6.92-.17,1.07-.32,1.02-.27,1.03-.43.98-.15,1.07-.52.96-.44.99-.21,1.05-.08,1.08-.4,1-.29,1.03-.24,1.04-.37,1.01-.29,1.03-.1,1.08-.05,1.09-.41,1.01-.05,1.09-.37,1.02-.42,1.01.11,1.12-.56.98.16,1.12-.59.98.12,1.1-.3,1.04,1.1-.07,1.02.52,1.09-.05,1.08-.02,1.08-.04,1.04.52,1.1-.26,1.07.21,1.06.19,1.08-.11,1.07.16,1.08.11,1.08.06h1.08s1.07.17,1.07.17l1.08.02,1.08-.09,1.08.04,1.09-.2,1.07.11,1.08.12,1.07.2.89-.23.35-1-.04-1.06-.11-1.06-.1-1.06.33-1.06-.44-1.06.14-1.06-.17-1.06.17-1.06-.07-1.06-.08-1.06.05-1.06.18-1.06.14-1.06-.03-1.06-.21-1.06-.11-1.06v-1.06s.08-1.06.08-1.06l.17-1.06.03-1.06-.22-1.06.07-1.06.03-1.06-.2-1.07v-1.07s.16-1.05.16-1.05l-1.03.18-1.09-.16-1.08-.06h-1.09s-1.06-.46-1.06-.46l-1.1.07-1.09-.08-1.07-.24-1.12.19-1.08-.17-1.05-.4-1.12.13-1.06-.26-1.1-.02-1.04-.34-1.18-.37Zm85.09,30.55l-1.09.63-1.08-.03-.98.4-1.02.24-1.01.28-1.05.1-.99.37h-1.08s-1.06.05-1.06.05l-1.01.29-.99.4-1.06.07-1.04.17-1.03.21-1.05.08-1.04.15-1.01.33-1.01.37h-1.07s-1.01.35-1.01.35l-1.06.02-1.07-.04-.99.48-1.09-.21-.99.51-1.23-.18.42,1.15.02,1.06.35,1.01-.26,1.09.29,1.02.25,1.03.25,1.03-.32,1.09.45,1.01-.03,1.06-.02,1.06.27,1.03v1.06s.02,1.06.02,1.06l.07,1.05.11,1.05-.04,1.06.08,1.05.19,1.05.04,1.05.28,1.04-.04,1.06-.06,1.06-.16,1.06.39,1.04-.35,1.06.13,1.17,1.11-.1,1.07-.1,1.07.33,1.07-.44,1.07.14,1.07-.17,1.07.17,1.07-.07,1.07-.08,1.07.05,1.07.18,1.07.14,1.07-.03,1.07-.21,1.07-.11h1.07s1.07.08,1.07.08l1.07.17,1.07.03,1.07-.22,1.07.07,1.07.03,1.07-.2h1.07s1.07.15,1.07.15l1.08-.15,1.08.12,1.05.02-.15-.97.36-1.07-.2-1.05-.07-1.06.07-1.06-.38-1.03-.04-1.06.17-1.08-.38-1.03v-1.06s-.29-1.03-.29-1.03l.03-1.07-.2-1.04-.08-1.06-.12-1.05-.27-1.03-.02-1.07-.15-1.05-.33-1.02-.24-1.03-.22-1.03-.16-1.05-.17-1.04-.35-1.01-.12-1.06-.38-1-.38-.99.13-1.12-.46-.98-.17-1.05-.31-1.01-.29-1.17Zm-32.82-62.48l1.15.64.64.9.92.56.81.7.83.67.7.81.89.61.62.9.66.85.82.69.9.61.66.85.73.78.75.76.65.85.7.81.83.69.86.67.57.92.84.69.55.89,1.01-.28.82-.77,1.12-.15.79-.82,1.13-.14.79-.78,1-.41.82-.71,1.22-.39-1.1-.61-.98-.46-.99-.44-.71-.92-1.11-.24-.88-.64-.89-.61-1.04-.34-.91-.58-.94-.53-.96-.48-.99-.43-.93-.55-.99-.43-1.04-.31-.99-.43-1.08-.2-.97-.48-.97-.48-.94-.56-1.14-.02-.9-.7-1.03-.32-1.06-.23-1.23-.42Zm62.22,53.25l-.84.78-1.1.12-.94.54-1,.38-.99.41-1.05.24-.96.51-1.09.13-1.06.2-.99.42-.95.53-1.06.21-1.02.31-1.01.35-1.05.21-1.03.28-.98.46-.97.49-1.08.13-.98.47-1.07.16-1.18.16.6,1.03-.06,1.11.64.91-.11,1.12.56.94.13,1.05.45.97-.15,1.11.39.99.35,1,.35,1-.22,1.12.54.96.06,1.06.07,1.05.35,1,.07,1.05.11,1.05.15,1.04.18,1.03.03,1.06.15,1.04.25,1.03.1,1.04.34,1.02.02,1.05v1.06s-.11,1.06-.11,1.06l.44,1.02-.29,1.07.09,1.05.16,1.05.14,1.05-.13,1.29,1.13-.43,1.06.14,1.06-.17,1.06.17,1.06-.07,1.06-.08,1.06.05,1.06.18,1.06.14,1.06-.03,1.06-.21,1.06-.11h1.06s1.06.08,1.06.08l1.06.17,1.06.03,1.06-.22,1.06.07,1.06.03,1.06-.2h1.06s1.06.15,1.06.15l1.06-.15,1.07.12h1.07s1.02-.05,1.02-.05l.24-.91-.2-1.04-.08-1.05.06-1.06-.39-1.02-.05-1.05.16-1.07-.39-1.01-.03-1.06-.29-1.02v-1.06s-.2-1.03-.2-1.03l-.1-1.05-.14-1.04-.29-1.01-.04-1.06-.17-1.04-.36-1-.27-1.01-.26-1.02-.2-1.03-.21-1.03-.39-.98-.16-1.04-.42-.97-.42-.97.08-1.12-.5-.94-.22-1.03-.36-.99-.48-.95-.39-.98-.52-.92-.15-1.07-.51-.93-.29-1.02-.36-.99-.61-.88-.46-.94-.29-1.02-.59-.88-.15-1.09m-58.06,6.99l1.15-.52,1.07.13,1.01-.32,1.03-.16,1.03-.2,1.05-.03,1.01-.32,1.07.07,1.06-.02,1.02-.25,1-.38,1.05-.06,1.03-.17,1.02-.21,1.05-.09,1.03-.17.99-.36.98-.4,1.06-.04.98-.4,1.05-.08,1.06-.03.94-.55,1.1.12.8-.5v-.97s-.67-.88-.67-.88l-.26-1.03-.59-.9-.03-1.13-.56-.91-.53-.92-.55-.91-.04-1.14-.75-.81-.33-1.01-.36-1-.63-.87-.39-.99-.44-.96-.49-.94-.53-.91-.41-.98-.54-.91-.64-.85-.53-.91-.74-.78-.48-.94-.48-.95-.41-.99-.88-.68-.28-1.08-.62-.86-.69-.81-.69-.81-.35-1.05-.98-.59-.48-.91-.85.54-1.02.23-.94.44-.94.44-.99.31-1.03.18-1.02.21-.97.36-.91.52-.95.42-.99.31-1.02.21-1.04.12-1,.25-.94.48-1.02.19-1,.21.53.91.35,1,.17,1.06.46.96.19,1.04.29,1.01.37.99-.09,1.12.43.97.29,1.01.15,1.05.57.94.23,1.03v1.09s.53.96.53.96l.16,1.05.4.99.09,1.07.3,1.02.17,1.05.19,1.05.33,1.02.06,1.07.18,1.04.35,1.01.24,1.03.21,1.04.13,1.04.04,1.22ZM124.73,8.75l.91.72.3,1.07.68.85.53.94.56.92.4,1.01.65.88.29,1.06.36,1.03.56.92.67.87.36,1.02.45.98.49.96.36,1.02.42.99.59.91.62.9.28,1.06.6.91.3,1.05.23,1.07.72.87.07,1.14.74.87.02,1.15.68.9.27,1.07,1-.47,1.14.12.99-.44,1-.41.99-.42,1.15.11.92-.65,1.06-.2,1.05-.23.95-.52,1.04-.26,1.02-.31,1-.36,1.04-.47-.62-.94-.71-.77-.8-.69-.7-.78-.89-.61-.66-.81-.66-.82-.6-.88-1-.48-.5-.99-.78-.7-.84-.64-.84-.63-.56-.94-1.08-.36-.7-.79-.9-.55-.7-.8-.86-.61-.87-.59-.79-.68-.72-.78-.76-.74-.86-.6-.97-.44-.92-.51-.87-.58-.82-.66-.78-.72-.86-.59-1-.37-.86-.6-.88-.56-1-.35m-9.38-.95l.42,1.12-.27,1.06.17,1.06v1.06s.06,1.06.06,1.06l-.13,1.06.16,1.06-.23,1.06-.15,1.06.08,1.06.2,1.06-.13,1.06-.02,1.06.02,1.06-.11,1.06-.03,1.06.16,1.06.2,1.06-.17,1.07.19,1.06-.14,1.06-.2,1.07.33,1.06-.36,1.07.37,1.06-.4,1.07.31,1.07-.13,1.07.2,1.01.88.24,1.05-.2,1.05-.18,1.04-.2,1.09.36,1.03-.43,1.07.03h1.07s1.04-.29,1.04-.29l1.07-.03,1.06-.09,1.05-.14,1.04-.2,1.2-.16-.38-1.14-.51-.94-.39-.98-.62-.89-.33-1.01-.33-1.01-.25-1.05-.77-.82-.11-1.12-.47-.95-.54-.92-.54-.92-.16-1.1-.86-.76-.34-1.02-.62-.88-.33-1.02-.55-.92-.56-.91-.46-.97-.35-1.02-.39-1-.54-.92-.71-.83-.62-.87-.54-.92-.46-.96-.41-1-.53-.92-.75-.78-.69-1.01Zm.01,38.32l.41,1.13-.27,1.06.17,1.06v1.06s.06,1.06.06,1.06l-.13,1.06.16,1.06-.23,1.06-.15,1.06.08,1.06.2,1.06-.13,1.06-.02,1.06.02,1.06-.11,1.06-.03,1.06.16,1.06.2,1.06-.17,1.06.19,1.06-.14,1.06-.2,1.06.33,1.06-.36,1.06.37,1.07-.4,1.07.31,1.04.97.05,1.07-.22,1.08.38,1.07-.19,1.07-.15,1.07-.17,1.09.4,1.06-.38,1.08.09,1.08.07,1.07-.23,1.08.04h1.08s1.08-.07,1.08-.07l1.08-.11,1.08.04,1.07-.1,1.07-.22,1.08-.08,1.05-.33,1.08-.03,1.08-.02,1.21-.02-.51-1.12.16-1.11-.23-1.04-.31-1.03-.31-1.03.1-1.11-.66-.95-.09-1.07-.4-1-.08-1.08-.31-1.03-.33-1.02-.21-1.05-.09-1.08-.13-1.07-.3-1.03-.48-.98-.39-1.01-.3-1.03-.21-1.05-.14-1.08-.28-1.04-.52-.97-.25-1.04-.3-1.03-.52-.95-.35-1.01-.17-1.03-.99.36-1.09.07-1.08.16-1.07.23-1.13-.24-1.06.29-1.08.14h-1.09s-1.05.4-1.05.4l-1.09.05-1.11-.18-1.07.35-1.09-.04-1.09.21-1.09-.13-1.3-.02Zm-67.46,102.95l1.09-.63,1.08.03.98-.4,1.02-.24,1.01-.28,1.05-.1,1-.37h1.08s1.06-.05,1.06-.05l1.01-.29.99-.4,1.06-.07,1.04-.17,1.03-.21,1.05-.08,1.04-.15,1.01-.33,1.01-.37h1.07s1.01-.35,1.01-.35l1.06-.02,1.07.04.99-.48,1.09.21.99-.51,1.23.17-.42-1.15-.02-1.06-.35-1.01.26-1.09-.29-1.02-.25-1.03-.25-1.03.32-1.09-.45-1.01.03-1.06.02-1.06-.27-1.03v-1.06s-.02-1.06-.02-1.06l-.07-1.05-.11-1.05.04-1.06-.08-1.05-.19-1.05-.04-1.05-.28-1.04.04-1.06.06-1.06.16-1.06-.39-1.04.35-1.06-.13-1.17-1.11.1-1.07.1-1.07-.33-1.07.44-1.07-.14-1.07.17-1.07-.17-1.07.07-1.07.08-1.07-.05-1.07-.18-1.07-.14-1.07.03-1.07.21-1.07.11h-1.06s-1.07-.08-1.07-.08l-1.07-.17-1.07-.03-1.07.22-1.07-.07-1.07-.03-1.07.2h-1.07s-1.07-.15-1.07-.15l-1.07.15-1.08-.12-1.05-.02.15.97-.36,1.07.19,1.05.07,1.06-.07,1.06.38,1.03.04,1.06-.17,1.08.38,1.03v1.06s.29,1.03.29,1.03l-.03,1.07.2,1.04.08,1.06.12,1.05.27,1.03.02,1.07.15,1.05.33,1.02.24,1.03.22,1.03.16,1.05.17,1.04.35,1.01.12,1.06.38,1,.38.99-.13,1.12.46.97.17,1.05.31,1.01.3,1.17Zm32.82,62.48l-1.15-.64-.64-.9-.92-.56-.81-.7-.83-.67-.7-.81-.89-.61-.62-.9-.66-.85-.82-.69-.9-.61-.66-.85-.73-.78-.75-.76-.65-.85-.7-.81-.83-.69-.85-.67-.57-.92-.83-.69-.55-.89-1.02.28-.82.77-1.12.15-.79.82-1.13.14-.79.78-1,.41-.81.72-1.22.39,1.1.61.98.46.99.44.71.92,1.11.23.88.64.89.61,1.04.34.91.58.94.53.96.48.99.43.93.55.99.43,1.04.31.99.43,1.08.2.97.48.97.48.94.56,1.14.02.89.7,1.03.32,1.06.23,1.23.42Zm-62.22-53.26l.84-.78,1.1-.12.94-.54,1-.38.99-.41,1.05-.24.96-.5,1.09-.13,1.06-.2.99-.42.95-.53,1.06-.21,1.02-.31,1.01-.35,1.05-.21,1.03-.28.98-.46.97-.49,1.08-.13.98-.47,1.07-.16,1.18-.16-.6-1.03.06-1.11-.64-.91.11-1.12-.56-.94-.13-1.05-.45-.97.15-1.11-.39-.99-.34-1-.35-1,.22-1.12-.54-.96-.06-1.06-.07-1.05-.35-1-.07-1.05-.11-1.05-.15-1.04-.18-1.03-.03-1.06-.15-1.04-.25-1.03-.1-1.04-.34-1.02-.02-1.05v-1.06s.11-1.06.11-1.06l-.44-1.02.29-1.07-.09-1.05-.16-1.05-.14-1.05.13-1.29-1.13.43-1.06-.14-1.06.17-1.06-.17-1.06.07-1.06.08-1.06-.05-1.06-.18-1.06-.14-1.06.03-1.06.21-1.06.11h-1.06s-1.06-.08-1.06-.08l-1.06-.17-1.06-.03-1.06.22-1.06-.07-1.06-.03-1.06.2h-1.06s-1.06-.15-1.06-.15l-1.06.15-1.07-.12h-1.07s-1.02.05-1.02.05l-.24.91.2,1.04.08,1.05-.06,1.06.39,1.02.05,1.05-.16,1.07.39,1.01.03,1.06.29,1.02v1.06s.2,1.03.2,1.03l.1,1.05.14,1.04.29,1.01.04,1.06.17,1.04.36,1,.27,1.01.26,1.02.2,1.03.21,1.03.39.98.16,1.04.42.97.42.97-.08,1.12.5.94.22,1.03.36.99.48.95.39.98.52.92.15,1.07.51.93.29,1.02.36.99.62.88.46.94.29,1.02.59.88.15,1.09m58.06-7l-1.15.52-1.07-.13-1.01.32-1.03.16-1.03.2-1.05.03-1.01.32-1.07-.07-1.06.02-1.02.25-1,.38-1.05.06-1.03.17-1.02.21-1.05.09-1.03.17-.99.36-.98.4-1.06.04-.98.4-1.05.08-1.06.03-.94.55-1.1-.12-.8.5v.97s.67.88.67.88l.26,1.03.59.9.03,1.13.56.91.53.92.55.91.04,1.14.76.81.33,1.01.36,1,.63.87.39.99.44.96.49.94.53.91.41.98.54.91.64.85.53.91.74.78.48.94.48.95.41.99.88.68.28,1.08.62.86.69.81.69.81.35,1.05.98.59.48.91.85-.54,1.02-.23.94-.44.94-.44.99-.31,1.03-.18,1.02-.21.97-.36.92-.52.95-.42.99-.31,1.02-.21,1.04-.12,1-.25.94-.48,1.02-.19,1-.21-.54-.91-.35-1-.17-1.06-.46-.96-.19-1.04-.29-1.01-.37-.99.09-1.12-.43-.98-.29-1.02-.15-1.05-.57-.94-.23-1.03v-1.09s-.53-.96-.53-.96l-.16-1.05-.4-.99-.09-1.07-.3-1.03-.17-1.05-.19-1.05-.33-1.02-.06-1.07-.18-1.04-.35-1.01-.24-1.03-.21-1.04-.13-1.04-.04-1.22Zm22.96,64.07l-.91-.72-.3-1.07-.68-.85-.53-.94-.56-.92-.4-1.01-.65-.88-.29-1.06-.36-1.03-.56-.92-.67-.87-.36-1.02-.45-.98-.49-.96-.36-1.02-.42-.99-.59-.91-.62-.9-.28-1.06-.6-.91-.3-1.05-.23-1.07-.72-.87-.07-1.13-.74-.86-.02-1.15-.68-.9-.27-1.07-1,.46-1.14-.12-.99.44-1,.41-.99.42-1.15-.11-.92.65-1.06.2-1.05.23-.95.52-1.03.26-1.02.31-1,.36-1.04.47.62.94.71.77.8.69.7.78.89.61.66.81.66.82.6.88,1,.48.5.99.78.7.84.64.84.63.56.94,1.08.36.7.79.9.55.7.8.86.61.87.59.79.68.72.78.76.74.86.6.97.44.92.51.87.58.82.66.78.72.86.59,1,.37.86.6.88.56,1,.35m-16.89-71.91l1.16-.48,1.07.17,1.02-.27,1.04-.1,1.03-.14,1.05.04,1.02-.24,1.05.15,1.05.08,1.03-.15,1.02-.27,1.04.06,1.03-.04,1.03-.08,1.04.06,1.04-.02,1.03-.2,1.03-.24,1.04.14,1.03-.22,1.05.11,1.04.17,1.03-.35,1.05.34.86-.25.39-1.02-.31-1.08.13-1.08-.21-1.08.4-1.08-.16-1.08-.12-1.08-.13-1.08.44-1.08-.34-1.08.13-1.08.12-1.08-.18-1.08.1-1.08.05-1.08v-1.08s-.03-1.08-.03-1.08l.11-1.08-.02-1.08-.13-1.08v-1.08s-.22-1.09-.22-1.09l.08-1.09.1-1.08-1.03-.18-1.04.37-1.04-.36-1.04.04-1.04.11-1.04.1-1.04-.33-1.04.44-1.04-.14-1.04.17-1.04-.17-1.04.07-1.04.08-1.04-.05-1.04-.18-1.04-.14-1.04.03-1.04.21-1.04.11h-1.04s-1.04-.08-1.04-.08l-1.04-.17-1.04-.03-1.04.22-1.04-.07-1.05-.03-.98.19.18.85-.14,1.06.18,1.06-.09,1.06.03,1.06.12,1.06-.34,1.08.21,1.05.07,1.06-.07,1.07.38,1.04.03,1.06-.19,1.08.36,1.03v1.06s.24,1.04.24,1.04l-.06,1.07.16,1.05.05,1.06.08,1.06.23,1.04-.03,1.07.1,1.05.28,1.03.19,1.04-.03,1.23Zm26.27,72.86l-.42-1.12.27-1.06-.17-1.06v-1.06s-.06-1.06-.06-1.06l.13-1.06-.16-1.06.23-1.06.15-1.06-.08-1.06-.2-1.06.13-1.06.02-1.06-.02-1.06.11-1.06.03-1.06-.16-1.06-.2-1.06.17-1.07-.19-1.06.14-1.06.2-1.07-.33-1.06.36-1.07-.37-1.06.4-1.07-.31-1.07.13-1.07-.2-1.01-.88-.24-1.05.21-1.05.18-1.04.2-1.09-.36-1.02.43-1.07-.03h-1.07s-1.04.29-1.04.29l-1.07.03-1.06.09-1.05.14-1.04.2-1.2.16.38,1.14.51.94.39.98.62.89.33,1.01.33,1.01.25,1.05.77.82.11,1.12.47.95.54.92.54.92.16,1.1.86.76.34,1.02.62.88.33,1.02.55.92.56.91.46.97.35,1.02.39,1,.54.92.71.83.62.87.54.92.46.96.41,1,.53.92.75.78.69,1.01Zm-.01-38.32l-.41-1.13.27-1.06-.17-1.06v-1.06s-.06-1.06-.06-1.06l.13-1.06-.16-1.06.23-1.06.15-1.06-.08-1.06-.2-1.06.13-1.06.02-1.06-.02-1.06.11-1.06.03-1.06-.16-1.06-.2-1.06.17-1.06-.19-1.06.14-1.06.2-1.06-.33-1.06.36-1.06-.37-1.07.4-1.07-.31-1.04-.97-.05-1.07.22-1.08-.38-1.07.19-1.07.15-1.07.17-1.09-.4-1.06.38-1.08-.09-1.08-.07-1.07.23-1.08-.04h-1.08s-1.08.07-1.08.07l-1.08.11-1.08-.04-1.07.1-1.07.22-1.08.08-1.05.33-1.08.03-1.08.02-1.21.02.51,1.12-.16,1.11.23,1.04.31,1.03.31,1.03-.1,1.11.66.95.09,1.07.4,1.01.08,1.08.31,1.03.33,1.02.21,1.05.09,1.08.13,1.07.3,1.03.48.98.39,1.01.3,1.03.21,1.06.14,1.08.28,1.04.52.97.25,1.04.3,1.03.52.95.35,1.01.17,1.03.99-.36,1.09-.07,1.08-.16,1.07-.23,1.13.24,1.06-.29,1.08-.14h1.09s1.05-.4,1.05-.4l1.09-.05,1.11.18,1.07-.35,1.1.04,1.09-.21,1.09.13,1.3.03Zm72.71-62.39l-1.14.41-1.07-.27-1.07.17h-1.07s-1.07.06-1.07.06l-1.07-.13-1.07.16-1.07-.23-1.07-.15-1.07.08-1.07.2-1.07-.13-1.07-.02-1.07.02-1.07-.11-1.07-.03-1.07.16-1.07.2-1.07-.17-1.07.19-1.07-.14-1.07-.2-1.07.33-1.07-.36-1.07.37-1.08-.4-1.08.31-1.08-.13.19,1.07-.41,1.05.14,1.05.1,1.05.1,1.05-.47,1.03.3,1.06-.18,1.04-.17,1.04.12,1.06-.17,1.04-.13,1.05-.08,1.05-.05,1.05-.2,1.04-.08,1.05.03,1.06-.11,1.05.12,1.07-.2,1.04-.22,1.04-.31,1.03.23,1.09-.49,1-.11,1.05-.04,1.06-.07.99.95.43,1.1-.3,1.02.29h1.07s1.02.31,1.02.31l1.05.09,1.05.08,1.03.22,1.01.35,1.01.31,1.04.15,1.07-.02,1.06.08,1.04.19,1.02.29,1,.37,1.02.24h1.07s1.01.28,1.01.28l1.02.25,1.07.03,1.03.22.99.39,1.06.09.99.36.95.26.19-.98.67-.9.14-1.06.26-1.02.39-.99-.05-1.1.29-1.02.5-.97-.04-1.09.32-1.01.06-1.06.36-1,.14-1.05.25-1.03.22-1.04.07-1.06.32-1.02.19-1.04v-1.07s.09-1.06.09-1.06l.11-1.05.18-1.05.16-1.05-.02-1.07.21-1.05-.05-1.07-.05-1.06.47-1.03-.13-1.07.16-1.05.02-1.06v-1.28Zm-13.32,84.82l-1.24-.39-.79-.77-1.02-.37-.94-.5-.97-.45-.89-.6-1.03-.33-.86-.68-1.03-.62-.73.94-.54.94-.8.72-.72.79-.69.81-.8.71-.75.76-.62.88-.6.91-.87.64-.62.89-.86.65-.91.6-.55.97-1.03.46-.54.99-1.06.41-.6.94-.89.6-.68.85-1.13.64,1.22-.39.98-.46.97-.47,1.16.05.89-.69,1.05-.26,1.05-.28.93-.57,1.03-.32,1.01-.37.99-.43.97-.48,1.02-.35.96-.48.91-.59.97-.47.85-.7.99-.43.99-.43,1.03-.36.75-.85,1.11-.23.91-.58.86-.66,1.13-.59Zm37.89-42.04l.08-1.13.7-.83.28-1.03.42-.96.37-.98.53-.92.25-1.03.61-.89.53-.92.3-1.01.17-1.06.47-.95.36-.99.31-1,.43-.97.34-1,.15-1.05.1-1.06.45-.96.09-1.06.39-.98.44-.97-.08-1.1.58-.94-.14-1.1.6-.95-.11-1.09.31-1.01-.03-1.07.56-.97v-1.06s.02-1.06.02-1.06v-1.06s.56-.99.56-.99l-.23-1.08.24-1.03.21-1.04-.1-1.06.17-1.04.12-1.05.06-1.05-.05-1.13-1.08-.12-1.06.02-1.06.13h-1.06s-1.06.22-1.06.22l-1.06-.08-1.06-.1-1.06-.19-1.06.37-1.06-.36-1.06.04-1.06.11-1.06.1-1.06-.33-1.06.44-1.06-.14-1.06.17-1.06-.17-1.06.07-1.06.08-1.06-.05-1.06-.18-1.06-.14-1.07.03-1.07.21-1.01.1.11.87-.13,1.05-.22,1.04-.09,1.05.15,1.06-.14,1.04-.11,1.05.11,1.06-.09,1.05-.27,1.03.04,1.06-.24,1.03-.14,1.04-.07,1.05-.53.99v1.06s-.15,1.04-.15,1.04l-.3,1.02.13,1.09-.23,1.03-.45.98.07,1.08-.31,1.01-.06,1.06-.38.99-.18,1.04-.3,1.01-.29,1.01-.15,1.04-.42.98-.31,1-.14,1.05-.24,1.02-.28.97.99.31,1.02.34,1.07.17.99.42,1.06.18,1.06.19.9.7,1.08.14.99.44,1.02.31,1.06.21,1.03.31,1.07.19.93.59,1.05.23.97.47.99.41,1.08.17,1.01.34.94.53,1.05.23.87.7m-65.21,22.84l1.25-.05.93.52,1.04.1,1,.27,1.01.24.95.42,1.03.15.91.53.93.47,1,.25,1.04.14.93.47.96.37.97.34.92.47.94.41,1.02.24.48-.97.76-.75.46-.97.72-.78.76-.76.31-1.06.88-.68.26-1.09.9-.68.29-1.06.66-.83.36-1.01.88-.71.39-1,.41-.98.39-.99.89-.72.19-1.09.6-.88.58-.89.31-1.03.55-.91.5-.93.45-.96.4-.98.53-.92.4-.98.29-1.03.41-.97.18-1.07.46-.95.47-.95.53-1.07-1.22.03-.94-.58-1.03-.19-1.04-.12-1.04-.12-.95-.54-1.11.22-.99-.34-1.06-.04-.99-.36-1.04-.12-1.04-.11-1.02-.23-1-.36-1.01-.31-1.03-.14-1.06.04-1.05-.06-1.03-.15-1.02-.25-1.01-.32-1.03-.18-1.07.07-1.03-.21-1.02-.17.03,1.06-.17,1.04-.35,1-.05,1.06-.32,1.01-.22,1.03-.15,1.05-.61.95-.08,1.06-.22,1.03-.36,1,.06,1.1-.29,1.02-.51.97v1.1s-.35,1-.35,1l-.12,1.07-.43.98-.22,1.04-.34,1.01-.32,1.01-.19,1.05-.45.97-.34,1-.17,1.06-.27,1.02-.31,1.01-.39.98-.55,1.11Zm-15.11,34.38l.69-.89,1.04-.3.8-.69.88-.56.85-.61.94-.47.78-.71,1-.4.95-.48.81-.68.72-.78.91-.53.84-.62.81-.66.89-.57.83-.64.7-.79.67-.83.9-.55.66-.83.87-.6.91-.56.54-.96,1.01-.46.49-.99,1.02-.46.52-.96.82-.66.57-.9,1.01-.49.59-.88.61-.86.59-.87,1.07-.72-1.27-.21-.96-.5-.97-.47-1.07-.19-.98-.44-.99-.39-1.01-.33-1.03-.28-.99-.41-1.03-.28-1.07-.16-1.03-.29-1.1-.05-.95-.35-.42.92-.56.94-.05,1.14-.73.87-.37,1.01-.31,1.04-.33,1.03-.72.86-.02,1.17-.56.93-.29,1.05-.6.91-.39,1.01-.39,1.01-.51.95-.63.89-.6.9-.46.98-.3,1.05-.4,1.01-.49.96-.59.91-.66.87-.54.93-.33,1.04-.59.9-.56.92-.37,1.03m5.48-28.93l-1.27.13-1-.43-1.07.02-1.05-.13-1.06-.08-1.04-.24-1.07.05-1.04-.33-1.05-.24h-1.07s-1.07.14-1.07.14l-1.05-.18-1.06-.06-1.09.02-.11,1.07-.03,1.06.16,1.06.2,1.06-.17,1.06.19,1.06-.14,1.06-.2,1.06.33,1.06-.36,1.06.37,1.06-.4,1.06.31,1.06-.13,1.06.21,1.06-.4,1.06.16,1.06.12,1.06.13,1.07-.44,1.06.34,1.06-.13,1.07-.12,1.06.18,1.07-.1,1.06-.05,1.07v1.07s.03,1.07.03,1.07l-.11,1.12.91-.85.45-.97.56-.9.35-1.03.61-.87.62-.87.69-.83.2-1.11.83-.76.48-.95.41-.99.41-.99.78-.79.09-1.15.6-.89.33-1.03.62-.88.4-.99.38-1,.5-.94.61-.89.57-.91.41-.99.24-1.06.32-1.02.41-.98.49-.94.56-.91.43-.98.19-1.06.69-1.05Zm2.48-6.84l.05-1.27.6-.92.17-1.07.32-1.02.27-1.03.43-.98.15-1.07.52-.96.44-.99.21-1.05.08-1.08.4-1,.29-1.03.24-1.04.37-1.01.29-1.03.1-1.08.06-1.09.41-1.01.06-1.09.37-1.02.42-1.01-.11-1.12.57-.98-.16-1.12.59-.98-.12-1.1.3-1.04-1.11.07-1.02-.52-1.09.05-1.08.02-1.08.04-1.04-.52-1.1.26-1.07-.21-1.06-.19-1.08.11-1.07-.16-1.08-.11-1.08-.06h-1.08s-1.07-.17-1.07-.17l-1.08-.02-1.08.09-1.08-.04-1.09.2-1.07-.1-1.08-.11-1.07-.2-.89.23-.35,1,.04,1.06.11,1.06.1,1.06-.33,1.06.44,1.06-.14,1.06.17,1.06-.17,1.06.07,1.06.08,1.06-.05,1.06-.18,1.06-.14,1.06.03,1.06.21,1.06.11,1.06v1.06s-.08,1.06-.08,1.06l-.17,1.06-.03,1.06.22,1.06-.07,1.06-.03,1.06.2,1.07v1.07s-.16,1.05-.16,1.05l1.03-.18,1.09.16,1.08.06h1.09s1.06.46,1.06.46l1.1-.07,1.09.08,1.07.24,1.12-.19,1.08.17,1.05.4,1.12-.13,1.06.26,1.1.02,1.04.35,1.18.38Zm30.63-145.22l.97.6.4,1.02.75.77.61.87.64.85.48.95.71.8.38,1.02.43.98.62.86.72.8.43.98.51.93.54.91.42.98.48.94.64.86.67.85.33,1.02.64.87.34,1.02.28,1.04.75.82.12,1.12.77.81.06,1.13.71.85.29,1.03.6.9.03,1.13.54.93.5.95.5.95.07,1.28,1.11-.59,1.07-.16,1.06-.18.98-.47,1.05-.2,1.04-.25,1.02-.3,1.01-.35,1.05-.21,1.01-.34.97-.45,1.01-.32.93-.56,1.03-.27,1.03-.26,1.06-.18.87-.7,1.12-.03.98-.4.96-.48.91-.42-.25-1.02-.93-.68-.44-.98-.71-.81-.44-.98-.65-.84-.67-.83-.57-.89-.48-.97-.52-.94-.67-.83-.82-.72-.74-.77-.67-.82-.61-.88-.55-.93-.67-.83-.86-.66-.65-.84-.69-.81-.87-.65-.74-.77-.62-.89-.85-.66-.66-.84-.75-.76-.81-.69-.5-1.02-.88-.62-.79-.71-.7-.81-1-.47-.78-.73-.64-.89-1-.47-.76-.75-.93-.54-.74-.78-.86-.58-.95.52-.96.54-.89.65-1.03.42-.97.51-.89.66-.95.57-.96.54-1,.46-1,.46-.93.61M60.23,189.5l-.97-.6-.4-1.02-.75-.77-.61-.87-.64-.85-.48-.95-.71-.8-.38-1.02-.43-.98-.62-.86-.72-.8-.43-.98-.51-.93-.54-.91-.42-.98-.48-.94-.64-.86-.67-.85-.33-1.02-.64-.87-.34-1.02-.28-1.04-.75-.82-.12-1.12-.77-.81-.06-1.13-.71-.85-.29-1.03-.6-.9-.02-1.13-.54-.93-.5-.95-.5-.95-.07-1.28-1.11.59-1.07.16-1.06.18-.98.47-1.05.2-1.04.25-1.02.3-1.01.35-1.05.21-1.01.34-.97.45-1.01.32-.93.56-1.03.27-1.03.26-1.06.18-.88.7-1.12.03-.98.4-.96.48-.91.42.25,1.02.93.68.44.98.71.81.44.98.65.84.67.83.57.89.48.97.52.94.67.83.82.72.74.77.67.82.61.88.55.93.67.83.86.66.65.84.69.81.87.65.74.77.62.89.85.66.66.84.75.76.81.69.5,1.02.88.62.79.71.7.81,1,.47.78.73.64.89,1,.47.76.75.93.54.74.78.86.59.95-.52.96-.54.89-.65,1.03-.42.97-.51.89-.66.95-.57.96-.53,1-.46,1.01-.46.94-.6m103.71.28l1.18.1.86.74,1.06.35.98.51,1,.48.9.65,1.04.41.83.75.87.7.98.5.99.39.88-.52.86-.64.82-.68.9-.59.84-.66.71-.81.67-.84.91-.57.66-.85.88-.62.91-.58.54-.98,1.02-.48.5-1.01,1.03-.48.52-.98.83-.68.58-.92,1.02-.51.59-.9.61-.88.6-.89,1.03-.53.42-1.04.78-.74.76-.76.52-.95.73-.78.69-.82.64-.86.6-.89.71-.81.59-.89.49-.96.59-.89.38-1.02.63-.86.63-.86.71-.98-1.23-.14-.87-.71-1.01-.33-1.04-.26-1.04-.26-.9-.66-1.15.07-.96-.47-1.06-.18-.96-.49-1.03-.26-1.04-.24-1-.36-.96-.48-.98-.44-1.03-.27-1.08-.1-1.05-.19-1.03-.28-1-.37-1.03-.44-.43,1.02-.17,1.07-.45.97-.42.98-.21,1.06-.4.99-.57.92-.28,1.04-.54.92-.45.96-.38,1-.81.79-.32,1.02-.46.96-.59.89-.21,1.09-.53.92-.74.81-.26,1.07-.6.88-.39,1-.67.84-.49.94-.6.87-.59.88-.47.96-.7.81-.61.87-.46.96-.56.9-.59.88-.65.83-.66.83-.52.92m-83.8-81.09l1.11-.41,1.04.27,1.04-.17h1.04s1.04-.06,1.04-.06l1.04.13,1.04-.16,1.04.23,1.04.15,1.04-.08,1.04-.2,1.04.13,1.04.02,1.04-.02,1.04.11,1.04.03,1.04-.16,1.04-.2,1.04.17,1.04-.19,1.04.14,1.04.2,1.04-.33,1.04.36,1.04-.37,1.05.4.97-.28.1-1-.21-1.08.4-1.08-.16-1.08-.12-1.08-.13-1.08.44-1.08-.34-1.08.13-1.08.12-1.08-.18-1.08.1-1.07.05-1.08v-1.08s-.03-1.08-.03-1.08l.11-1.08-.02-1.08-.13-1.08v-1.08s-.22-1.08-.22-1.08l.08-1.08.1-1.08.19-1.09-.36-1.03-.86-.24-1.04.02-1.04.09-1.04.08-1.03-.36-1.06.41-1.04-.18-1.05.12-1.03-.21-1.04.02-1.04.03-1.04-.1-1.03-.24-1.03-.2-1.04-.04-1.05.13-1.04.03-1.03-.07-1.02-.17-1.02-.26-1.03-.12-1.05.12-1.02-.17-1.03-.13-.9.05-.05.91-.3,1.03v1.07s-.24,1.03-.24,1.03l-.14,1.05-.05,1.06-.51,1.01.04,1.07-.09,1.06-.23,1.04.21,1.08-.13,1.05-.35,1.03.2,1.08-.17,1.05.09,1.07-.23,1.05v1.06s-.12,1.06-.12,1.06l-.09,1.06.06,1.06-.2,1.05-.07,1.06.12,1.06.02,1.06-.13,1.28Zm63.63,6.83l-1.11.41-1.04-.27-1.04.17h-1.04s-1.04.06-1.04.06l-1.04-.13-1.04.16-1.04-.23-1.04-.15-1.04.08-1.04.2-1.04-.13-1.04-.02-1.04.02-1.04-.11-1.04-.03-1.04.16-1.04.2-1.04-.17-1.04.19-1.04-.14-1.04-.2-1.04.33-1.04-.36-1.05.37-1.05-.4-.97.28-.1,1,.21,1.08-.4,1.08.16,1.08.12,1.08.13,1.08-.44,1.08.34,1.08-.13,1.08-.12,1.08.18,1.08-.1,1.08-.05,1.08v1.08s.03,1.08.03,1.08l-.11,1.08.02,1.08.13,1.08v1.08s.22,1.08.22,1.08l-.08,1.08-.1,1.09-.19,1.09.36,1.03.86.24,1.04-.02,1.04-.09,1.04-.08,1.03.36,1.06-.41,1.04.18,1.05-.12,1.03.21,1.04-.02,1.04-.03,1.04.1,1.03.24,1.03.2,1.04.04,1.05-.13,1.04-.03,1.03.07,1.02.17,1.02.26,1.03.12,1.05-.12,1.02.17,1.03.13.9-.05.05-.91.3-1.03v-1.07s.24-1.03.24-1.03l.14-1.05.05-1.06.51-1.01-.04-1.07.09-1.06.23-1.04-.21-1.08.13-1.05.35-1.03-.2-1.08.17-1.05-.09-1.07.23-1.05v-1.06s.12-1.06.12-1.06l.09-1.06-.06-1.06.2-1.05.07-1.06-.12-1.06-.02-1.06.13-1.28Zm-2.09-34.66l-1.16.48-1.07-.17-1.02.27-1.04.1-1.03.14-1.05-.04-1.02.24-1.05-.15-1.05-.08-1.03.15-1.02.27-1.04-.06-1.03.04-1.03.08-1.04-.06-1.04.02-1.03.2-1.03.24-1.04-.14-1.03.22-1.05-.11-1.04-.17-1.03.35-1.05-.34-.86.25-.39,1.02.31,1.08-.13,1.08.21,1.08-.4,1.08.16,1.08.12,1.08.13,1.08-.44,1.08.34,1.08-.13,1.08-.12,1.07.18,1.08-.1,1.08-.05,1.08v1.08s.03,1.08.03,1.08l-.11,1.08.02,1.08.13,1.08v1.08s.22,1.08.22,1.08l-.08,1.09-.1,1.08,1.03.18,1.04-.37,1.04.36,1.04-.04,1.04-.11,1.04-.1,1.04.33,1.04-.44,1.04.14,1.04-.17,1.04.17,1.04-.07,1.04-.08,1.04.05,1.04.18,1.04.14,1.04-.03,1.04-.21,1.04-.11h1.04s1.04.08,1.04.08l1.04.17,1.04.03,1.04-.22,1.05.07,1.05.03.98-.19-.18-.85.14-1.06-.18-1.06.09-1.06-.03-1.06-.12-1.06.34-1.08-.21-1.05-.07-1.06.07-1.07-.38-1.04-.03-1.06.19-1.08-.36-1.03v-1.06s-.24-1.04-.24-1.04l.06-1.07-.16-1.05-.05-1.06-.08-1.06-.23-1.04.03-1.07-.1-1.05-.28-1.03-.19-1.04.03-1.23Z"/></svg>